<?xml version="1.0" encoding="UTF-8"?>
<svg width="356px" height="237px" viewBox="0 0 356 237" version="1.1" xmlns="http://www.w3.org/2000/svg" xmlns:xlink="http://www.w3.org/1999/xlink">
    <!-- Generator: Sketch 58 (84663) - https://sketch.com -->
    <title>adidas-black-vector-logo</title>
    <desc>Created with Sketch.</desc>
    <g id="adidas-black-vector-logo" stroke="none" stroke-width="1" fill="none" fill-rule="evenodd">
        <path d="M353.967,192.319 L338.445,192.319 C337.963,189.745 337.215,187.932 336.193,186.913 C334.533,185.252 331.701,184.397 327.789,184.397 C323.936,184.397 321.262,185.036 319.766,186.323 C318.639,187.288 318.049,188.624 318.049,190.284 C318.049,192.635 321.318,194.512 327.789,195.958 C335.18,197.561 340.48,198.954 343.742,200.077 C344.6,200.399 345.348,200.667 345.885,200.932 C352.473,204.038 355.734,208.754 355.734,215.067 C355.734,222.774 352.523,228.395 346.152,231.926 C345.348,232.358 344.6,232.731 343.742,233.106 C339.623,234.874 334.807,235.78 329.4,235.78 C321.318,235.78 314.785,234.334 309.809,231.497 C306.678,229.676 304.338,227.389 302.779,224.631 C301.221,221.874 300.441,218.655 300.441,214.959 L316.711,214.959 C316.711,217.743 317.73,219.94 319.709,221.436 C321.693,222.991 325.064,223.795 329.824,223.795 C333.412,223.795 336.086,223.042 337.855,221.545 C339.25,220.366 339.889,219.079 339.889,217.583 C339.889,215.067 336.684,213.09 330.307,211.696 C320.781,209.661 314.785,208 312.324,206.821 C305.797,203.772 302.584,199.065 302.584,192.528 C302.584,187.288 304.244,182.844 307.668,179.206 C311.951,174.655 318.371,172.405 326.885,172.405 C333.895,172.405 339.516,173.424 343.744,175.403 C344.117,175.561 344.441,175.725 344.764,175.942 C347.813,177.596 350.113,179.795 351.654,182.528 C353.193,185.252 353.967,188.522 353.967,192.319" id="Fill-74" fill="#000000"></path>
        <path d="M346.957,152.813 C347.279,153.245 347.438,153.725 347.438,154.258 C347.438,155.006 347.172,155.653 346.633,156.184 C346.1,156.723 345.404,157.047 344.549,157.096 C344.922,157.254 345.188,157.42 345.404,157.629 L346.9,159.614 L348.078,161.59 L346.15,161.59 L345.238,159.987 C344.656,158.973 344.174,158.219 343.742,157.846 C343.691,157.795 343.635,157.737 343.527,157.686 L342.248,157.313 L341.283,157.313 L341.283,161.59 L339.674,161.59 L339.674,151.532 L343.152,151.532 C343.369,151.532 343.584,151.583 343.742,151.583 C344.598,151.583 345.238,151.692 345.67,151.85 C346.203,152.014 346.633,152.331 346.957,152.813 Z M345.67,154.422 C345.67,154.1 345.619,153.833 345.455,153.618 C345.297,153.352 345.08,153.186 344.764,153.086 C344.549,153.028 344.225,152.977 343.742,152.92 L341.283,152.92 L341.283,155.918 L343.262,155.918 C343.42,155.918 343.635,155.918 343.742,155.918 C344.441,155.868 344.922,155.76 345.188,155.493 C345.512,155.221 345.67,154.846 345.67,154.422 L345.67,154.422 Z" id="Fill-75" fill="#000000"></path>
        <path d="M353.061,156.458 C353.061,158.01 352.68,159.563 351.824,161.059 C351.025,162.555 349.897,163.684 348.402,164.481 C346.9,165.344 345.404,165.717 343.793,165.717 C343.742,165.717 343.742,165.717 343.742,165.717 C342.139,165.717 340.639,165.344 339.143,164.481 C337.639,163.682 336.518,162.555 335.713,161.059 C334.857,159.563 334.484,158.01 334.484,156.458 C334.484,154.795 334.857,153.245 335.713,151.743 C336.568,150.247 337.697,149.125 339.193,148.319 C340.695,147.514 342.189,147.141 343.742,147.09 C343.742,147.09 343.742,147.09 343.793,147.09 C345.348,147.09 346.85,147.516 348.344,148.319 C349.848,149.125 351.025,150.247 351.824,151.743 C352.68,153.245 353.061,154.795 353.061,156.458 Z M351.508,156.458 C351.508,155.063 351.184,153.782 350.488,152.547 C349.789,151.317 348.828,150.354 347.598,149.657 C346.367,149.016 345.08,148.641 343.793,148.641 C343.742,148.641 343.742,148.641 343.742,148.641 C342.457,148.641 341.176,149.016 339.947,149.657 C338.711,150.354 337.748,151.317 337.051,152.547 C336.359,153.782 335.984,155.063 335.984,156.458 C335.984,157.795 336.359,159.075 337.051,160.311 C337.697,161.485 338.66,162.454 339.889,163.143 C341.119,163.842 342.406,164.165 343.742,164.165 C343.742,164.165 343.742,164.165 343.793,164.165 C345.137,164.165 346.418,163.84 347.654,163.143 C348.883,162.454 349.848,161.485 350.488,160.311 C351.184,159.075 351.508,157.795 351.508,156.458 L351.508,156.458 Z" id="Fill-76" fill="#000000"></path>
        <polyline id="Fill-77" fill="#000000" points="262.006 80.824 305.955 154.049 235.355 154.049 193.39 84.089 161.597 31.151 193.39 12.042 213.405 0 262.006 80.824"></polyline>
        <path d="M279.297,208.215 L279.297,201.579 C277.744,193.549 270.627,187.444 262.17,187.444 C262.113,187.444 262.063,187.444 262.006,187.444 C252.428,187.502 244.664,195.317 244.664,204.893 C244.664,214.477 252.428,222.292 262.006,222.399 C262.063,222.399 262.113,222.399 262.17,222.399 C270.627,222.399 277.744,216.245 279.297,208.215 Z M293.912,204.893 L293.912,234.924 L279.297,234.924 L279.297,231.604 C274.371,234.817 268.482,236.692 262.17,236.692 C262.113,236.692 262.063,236.692 262.006,236.692 C244.557,236.584 230.371,222.342 230.371,204.893 C230.371,187.446 244.557,173.209 262.006,173.102 C262.063,173.102 262.113,173.102 262.17,173.102 C268.482,173.102 274.371,174.979 279.297,178.184 L279.297,174.706 L293.912,174.706 L293.912,204.893 L293.912,204.893 Z" id="Fill-78" fill="#000000"></path>
        <path d="M210.68,208.215 L210.68,201.579 C209.127,193.549 202.003,187.444 193.548,187.444 C193.497,187.444 193.44,187.444 193.39,187.444 C183.807,187.502 176.048,195.317 176.048,204.893 C176.048,214.477 183.807,222.292 193.39,222.399 C193.44,222.399 193.497,222.399 193.548,222.399 C202.003,222.399 209.127,216.245 210.68,208.215 Z M225.289,204.893 L225.289,234.924 L210.68,234.924 L210.68,231.604 C205.698,234.817 199.866,236.692 193.548,236.692 C193.497,236.692 193.44,236.692 193.39,236.692 C175.94,236.584 161.756,222.342 161.756,204.893 C161.756,187.446 175.94,173.209 193.39,173.102 C193.44,173.102 193.497,173.102 193.548,173.102 C199.867,173.102 205.698,174.979 210.68,178.184 L210.68,154.049 L225.289,154.049 L225.289,204.893 L225.289,204.893 Z" id="Fill-79" fill="#000000"></path>
        <polyline id="Fill-80" fill="#000000" points="193.39 125.247 210.623 154.049 140.073 154.049 100.897 88.854 99.186 86.015 100.897 85.001 151.05 54.806 193.39 125.247"></polyline>
        <polygon id="Fill-81" fill="#000000" points="140.13 234.924 156.026 234.924 156.026 173.1 140.13 173.1"></polygon>
        <polygon id="Fill-82" fill="#000000" points="140.13 168.334 156.026 168.334 156.026 154.366 140.13 154.366"></polygon>
        <path d="M118.238,208.215 L118.238,201.579 C116.685,193.549 109.567,187.444 101.055,187.444 C101.004,187.444 100.947,187.444 100.897,187.444 C91.313,187.502 83.556,195.317 83.556,204.893 C83.556,214.477 91.313,222.292 100.897,222.399 C100.947,222.399 101.004,222.399 101.055,222.399 C109.567,222.399 116.685,216.245 118.238,208.215 Z M132.847,204.893 L132.847,234.924 L118.238,234.924 L118.238,231.604 C113.263,234.817 107.375,236.692 101.055,236.692 C101.004,236.692 100.947,236.692 100.897,236.692 C83.448,236.584 69.263,222.342 69.263,204.893 C69.263,187.446 83.448,173.209 100.897,173.102 C100.947,173.102 101.004,173.102 101.055,173.102 C107.375,173.102 113.263,174.979 118.238,178.184 L118.238,154.049 L132.847,154.049 L132.847,204.893 L132.847,204.893 Z" id="Fill-83" fill="#000000"></path>
        <polyline id="Fill-84" fill="#000000" points="100.897 129.958 115.348 154.049 44.747 154.049 36.824 140.827 88.689 109.675 100.897 129.958"></polyline>
        <path d="M48.924,208.215 L48.924,201.579 C47.371,193.549 40.253,187.444 31.741,187.444 C31.684,187.444 31.633,187.444 31.576,187.444 C22.05,187.502 14.292,195.317 14.292,204.893 C14.292,214.477 22.05,222.292 31.576,222.399 C31.633,222.399 31.684,222.399 31.741,222.399 C40.253,222.399 47.371,216.245 48.924,208.215 Z M63.533,204.893 L63.533,234.924 L48.924,234.924 L48.924,231.604 C43.942,234.817 38.054,236.692 31.741,236.692 C31.684,236.692 31.633,236.692 31.576,236.692 C14.184,236.584 0,222.342 0,204.893 C0,187.446 14.184,173.209 31.576,173.102 C31.633,173.102 31.684,173.102 31.741,173.102 C38.054,173.102 43.942,174.979 48.924,178.184 L48.924,174.706 L63.533,174.706 L63.533,204.893 L63.533,204.893 Z" id="Fill-85" fill="#000000"></path>
    </g>
</svg>