<?xml version="1.0" encoding="UTF-8"?>
<svg width="180px" height="19px" viewBox="0 0 180 19" version="1.1" xmlns="http://www.w3.org/2000/svg" xmlns:xlink="http://www.w3.org/1999/xlink">
    <!-- Generator: Sketch 58 (84663) - https://sketch.com -->
    <title>diadora-black-vector-logo</title>
    <desc>Created with Sketch.</desc>
    <g id="diadora-black-vector-logo" stroke="none" stroke-width="1" fill="none" fill-rule="evenodd">
        <path d="M28.5296381,1.01738439 L38,5.25610726 C38,5.25610726 33.1976394,7.31360073 24.5018199,8.65731167 C24.5018199,8.65731167 31.7305532,12.0748779 37.8152558,19 L26.5577163,19 C26.5577163,19 25.0580283,15.9996591 21.7039829,12.6158391 C19.749844,10.6268606 17.0359817,8.69208045 13.8854513,6.87796841 C12.0656718,5.83081468 10.1945196,4.88898989 8.03785358,3.96454948 C8.03785358,3.96454948 5.86439268,3.04113169 3.72452163,2.238382 C2.25743552,1.69742075 0.825915141,1.26076582 0,1 C0,1 12.1160566,4.12203159 19.2440204,3.68537666 C19.2440204,3.68537666 23.7608673,3.94716509 28.5296381,1.01738439" id="Fill-74" fill="#000000"></path>
        <path d="M166.160277,11.5671032 L171.989527,11.5671032 L169.483569,5.47320973 L168.666235,5.47320973 L166.160277,11.5671032 Z M158.218748,18.9479503 L165.648694,1 L172.637999,1 L180,18.9295799 L175.058027,18.9295799 L173.864,16.0576629 L164.284805,16.0760333 L163.07579,18.9479503 L158.218748,18.9479503 Z M80.6539486,11.6181323 L86.4831989,11.6181323 L83.9612538,5.5252594 L83.1429206,5.5252594 L80.6539486,11.6181323 Z M72.6954334,19 L80.1433647,1.05102909 L87.1136851,1.05102909 L94.4587003,18.9642796 L89.5506994,18.9642796 L88.3406854,16.0913421 L78.779476,16.1270624 L77.5534749,19 L72.6954334,19 Z M143.458774,9.89436979 L150.702872,9.89436979 C151.384316,9.89436979 151.946858,9.33815275 151.946858,8.62374553 L151.928873,6.98775302 C151.928873,6.27436639 151.401303,5.73447865 150.719858,5.73447865 L143.458774,5.71610818 L143.458774,9.89436979 Z M49.4653616,14.2634802 L56.6065428,14.2634802 C58.0723485,14.2634802 59.2483902,13.0632761 59.2483902,11.5671032 L59.2483902,8.39717639 C59.2483902,6.91733288 58.0723485,5.71610818 56.6065428,5.71610818 L49.4653616,5.71610818 L49.4653616,14.2634802 Z M45,1 L57.8325439,1 C61.0719044,1 63.6957664,3.68004763 63.6957664,6.98775302 L63.6957664,13.012247 C63.6957664,16.3189318 61.0878913,18.9816295 57.8505292,18.9816295 L45,18.9479503 L45,1 Z M100.475797,14.2634802 L107.616979,14.2634802 C109.065798,14.2634802 110.240841,13.0632761 110.240841,11.5671032 L110.240841,8.39717639 C110.240841,6.91733288 109.065798,5.71610818 107.616979,5.71610818 L100.475797,5.71610818 L100.475797,14.2634802 Z M132.226926,8.39717639 C132.226926,6.91733288 131.06887,5.71610818 129.62005,5.71610818 L124.302383,5.71610818 C122.852565,5.71610818 121.678521,6.90100357 121.678521,8.39717639 L121.678521,11.5844531 C121.678521,13.0796054 122.852565,14.2634802 124.302383,14.2634802 L129.602065,14.2634802 C131.06887,14.2634802 132.226926,13.0632761 132.226926,11.5844531 L132.226926,8.39717639 Z M96.0104359,1 L108.843979,1 C112.081341,1 114.706202,3.68004763 114.706202,6.98775302 L114.706202,13.012247 C114.706202,16.3189318 112.081341,18.9816295 108.861964,18.9816295 L96.0104359,18.9479503 L96.0104359,1 Z M150.684886,1 C153.923248,1 156.548109,3.68004763 156.548109,6.98775302 L156.548109,9.89436979 C156.548109,10.9231162 155.986567,11.7742813 155.099289,12.1233203 L155.167234,12.1406702 C156.01954,12.5060384 156.548109,13.3408743 156.548109,14.3512502 L156.548109,18.9479503 L151.928873,18.9479503 L151.928873,16.0913421 C151.928873,16.0913421 152.065761,14.2992005 150.548997,14.2634802 L143.458774,14.2634802 L143.458774,18.9479503 L139.0094,18.9479503 L139.0094,1 L150.684886,1 Z M136.760232,12.9581561 C136.760232,16.2668821 134.119384,18.9642796 130.881023,18.9642796 L123.023425,18.9816295 C119.786063,18.9816295 117.161202,16.3189318 117.161202,13.012247 L117.144216,6.98775302 C117.144216,3.68004763 119.752091,1.01734989 122.989453,1.01734989 L130.948968,1.01734989 C134.18633,1.01734989 136.760232,3.68004763 136.760232,6.98775302 L136.760232,12.9581561 Z M66.3546,1.03469978 L71.1267116,1.03469978 L71.1107246,18.9479503 L66.3206276,18.9479503 L66.3546,1.03469978 L66.3546,1.03469978 Z" id="Fill-75" fill="#000000"></path>
    </g>
</svg>