<?xml version="1.0" encoding="UTF-8"?>
<svg width="175px" height="21px" viewBox="0 0 175 21" version="1.1" xmlns="http://www.w3.org/2000/svg" xmlns:xlink="http://www.w3.org/1999/xlink">
    <!-- Generator: Sketch 58 (84663) - https://sketch.com -->
    <title>louis-vuitton--only-text--vector-logo</title>
    <desc>Created with Sketch.</desc>
    <g id="louis-vuitton--only-text--vector-logo" stroke="none" stroke-width="1" fill="none" fill-rule="evenodd">
        <polyline id="Fill-72" fill="#000000" points="2.01780047 18.0202649 7 18.0202649 7 20 0 20 0 1 2.01780047 1 2.01780047 18.0202649"></polyline>
        <path d="M18.0005106,1 C12.533061,1 8,5.27170393 8,10.5004883 C8,15.7917759 12.533061,20 18.0005106,20 C23.466939,20 28,15.7917759 28,10.5004883 C28,5.27170393 23.466939,1 18.0005106,1 Z M18.0005106,2.91318427 C22.400817,2.91318427 25.8003574,6.35574402 25.8003574,10.5004883 C25.8003574,14.6452326 22.3334184,18.088769 18.0005106,18.088769 C13.6002042,18.088769 10.1332653,14.6452326 10.1332653,10.5004883 C10.1332653,6.35574402 13.6002042,2.91318427 18.0005106,2.91318427 L18.0005106,2.91318427 Z" id="Fill-73" fill="#000000"></path>
        <path d="M32.0194081,13.0882999 C32.0194081,14.5156838 32.0194081,16.0721978 32.8401249,17.3039 C33.6598751,18.4054789 35.1746728,19.0560958 36.5,19.0560958 C37.8253272,19.0560958 39.213489,18.4720305 40.0342058,17.4340234 C41.0434265,16.2023212 40.9805919,14.5802488 40.9805919,13.0882999 L40.9805919,2 L43,2 L43,13.6723651 C43,15.7483793 42.8114961,17.3039 41.359533,18.8594207 C40.1598751,20.2212463 38.3299375,21 36.5,21 C34.7966984,21 33.0286288,20.3513697 31.8299375,19.1196675 C30.1885039,17.5641468 30,15.8119511 30,13.6723651 L30,2 L32.0194081,2 L32.0194081,13.0882999" id="Fill-74" fill="#000000"></path>
        <polygon id="Fill-75" fill="#000000" points="47 20 49 20 49 1 47 1"></polygon>
        <path d="M61.6004084,4.88887176 C60.8672566,3.61439219 59.9329476,2.91318427 58.3339006,2.91318427 C56.6000681,2.91318427 55.1337645,4.06070419 55.1337645,5.78247237 C55.1337645,7.31184785 56.8002042,8.07751221 58.1337645,8.65176047 L59.3999319,9.16057569 C61.8669163,10.2446158 64,11.3931123 64,14.3249036 C64,17.5145207 61.3339006,20 58,20 C54.8672566,20 52.6004084,18.088769 52,15.2175276 L54.066712,14.7087124 C54.334241,16.5564636 55.8669163,18.088769 57.9336283,18.088769 C60.0003404,18.088769 61.8669163,16.6218967 61.8669163,14.5172963 C61.8669163,12.3492161 60.1330837,11.6470316 58.3339006,10.8823439 L57.1341048,10.372552 C54.9336283,9.41644821 53.0006807,8.33240812 53.0006807,5.71801593 C53.0006807,2.84970445 55.5340368,1 58.3339006,1 C60.4669843,1 62.2671886,2.08404009 63.3332199,3.8692881 L61.6004084,4.88887176" id="Fill-76" fill="#000000"></path>
        <polyline id="Fill-77" fill="#000000" points="80.5325401 15.4261966 85.8109387 1 88 1 80.5325401 21 73 1 75.1890613 1 80.5325401 15.4261966"></polyline>
        <path d="M93.0290646,13.0882999 C93.0290646,14.5156838 92.9659295,16.0721978 93.7915421,17.3039 C94.6152122,18.4054789 96.1372534,19.0560958 97.4689181,19.0560958 C98.8005828,19.0560958 100.259489,18.4720305 101.083159,17.4340234 C102.034071,16.2023212 101.970935,14.5802488 101.970935,13.0882999 L101.970935,2 L104,2 L104,13.6723651 C104,15.7483793 103.872759,17.3039 102.414824,18.8594207 C101.147265,20.2212463 99.3076061,21 97.4689181,21 C95.7565003,21 94.0440825,20.3513697 92.7765242,19.1196675 C91.1913479,17.5641468 91,15.8119511 91,13.6723651 L91,2 L93.0290646,2 L93.0290646,13.0882999" id="Fill-78" fill="#000000"></path>
        <polygon id="Fill-79" fill="#000000" points="108 20 110 20 110 1 108 1"></polygon>
        <polyline id="Fill-80" fill="#000000" points="118.45912 20 116.41254 20 116.41254 2.97872454 112 2.97872454 112 1 123 1 123 2.97872454 118.45912 2.97872454 118.45912 20"></polyline>
        <polyline id="Fill-81" fill="#000000" points="130.522618 20 128.476402 20 128.476402 2.97872454 124 2.97872454 124 1 135 1 135 2.97872454 130.522618 2.97872454 130.522618 20"></polyline>
        <path d="M146,1 C140.533851,1 136,5.27170393 136,10.5004883 C136,15.7917759 140.533851,20 146,20 C151.46717,20 156,15.7917759 156,10.5004883 C156,5.27170393 151.46717,1 146,1 Z M146,2.91318427 C150.400082,2.91318427 153.866844,6.35574402 153.866844,10.5004883 C153.866844,14.6452326 150.400082,18.088769 146,18.088769 C141.667313,18.088769 138.133156,14.6452326 138.133156,10.5004883 C138.133156,6.35574402 141.600939,2.91318427 146,2.91318427 L146,2.91318427 Z" id="Fill-82" fill="#000000"></path>
        <polyline id="Fill-83" fill="#000000" points="158 1 172.875127 16.014436 172.875127 1.76731099 175 1.76731099 175 21 160.124873 5.98360656 160.124873 20.168094 158 20.168094 158 1"></polyline>
    </g>
</svg>