<?xml version="1.0" encoding="UTF-8"?>
<svg width="187px" height="98px" viewBox="0 0 187 98" version="1.1" xmlns="http://www.w3.org/2000/svg" xmlns:xlink="http://www.w3.org/1999/xlink">
    <!-- Generator: Sketch 58 (84663) - https://sketch.com -->
    <title>rolex--eps--vector-logo</title>
    <desc>Created with Sketch.</desc>
    <g id="rolex--eps--vector-logo" stroke="none" stroke-width="1" fill="none" fill-rule="evenodd">
        <path d="M96.3829527,51.8977492 C91.1877272,51.8977492 86.9762424,50.3167808 86.9762424,48.3661832 C86.9762424,46.4155855 91.1877272,45.4995479 96.3829527,45.4995479 C101.578178,45.4995479 105.238609,46.4155855 105.238609,48.3661832 C105.238609,50.3167808 101.578178,51.8977492 96.3829527,51.8977492 Z M118.936379,11.0657745 C117.244424,11.0657745 115.873752,12.4508796 115.873752,14.1594103 C115.873752,15.2361563 116.393971,16.1803178 117.220552,16.7347617 L106.831095,39.2510063 L109.001492,9.26784982 C110.572095,9.13626985 111.805501,7.80239052 111.805501,6.18124502 C111.805501,4.47271434 110.434829,3.08760923 108.742875,3.08760923 C107.05092,3.08760923 105.679253,4.47271434 105.679253,6.18124502 C105.679253,7.52617304 106.528712,8.64811823 107.716363,9.07499979 L100.587475,38.3500351 L97.061326,6.05468719 C98.3663491,5.70112881 99.3182601,4.52394013 99.3182601,3.09363579 C99.3182601,1.38410069 97.9465932,0 96.2546387,0 C94.5626841,0 93.1910173,1.38410069 93.1910173,3.09363579 C93.1910173,4.6374404 94.3199816,5.88293014 95.7841539,6.11495282 L92.941352,37.5776306 L84.6805157,9.16640267 C85.656299,8.64912266 86.3207468,7.62862462 86.3207468,6.43837838 C86.3207468,4.72984771 84.9490799,3.34574702 83.2571254,3.34574702 C81.5651708,3.34574702 80.1944986,4.72984771 80.1944986,6.43837838 C80.1944986,8.14690906 81.5651708,9.53201417 83.2571254,9.53201417 C83.3008914,9.53201417 83.3486361,9.52799646 83.3914075,9.52598761 L86.95237,39.2510063 L74.9535177,17.6236797 C75.6676996,17.0571828 76.1272428,16.1773046 76.1272428,15.1889482 C76.1272428,13.4804175 74.755576,12.094308 73.0636214,12.094308 C71.3716669,12.094308 70,13.4804175 70,15.1889482 C70,16.8974789 71.3716669,18.282584 73.0636214,18.282584 C73.2864302,18.282584 73.5042657,18.2574733 73.7141436,18.2122741 L83.7673974,48.6434051 C86.0611347,55.7205992 106.448143,55.8501703 109.506791,48.6434051 L118.584261,17.2148779 C118.710586,17.2309487 118.806075,17.2530461 118.936379,17.2530461 C120.628333,17.2530461 122,15.867941 122,14.1594103 C122,12.4508796 120.628333,11.0657745 118.936379,11.0657745 L118.936379,11.0657745 Z" id="Fill-72" fill="#000000"></path>
        <path d="M112,69.5183217 L115.029679,69.5183217 C116.870761,69.5183217 117.515289,69.9361413 117.515289,71.5622226 L117.515289,91.5803985 C117.515289,93.161283 116.870761,93.7639073 115.029679,93.7639073 L112,93.7639073 L112,97 L143,97 L143,83.708116 L140.068791,83.708116 C140.068791,90.2616556 137.497642,93.7076624 133.171945,93.7076624 L124.472808,93.7076624 L124.472808,83.0572817 L126.179613,83.0572817 C128.988481,83.0572817 130.590849,84.3137534 130.590849,86.6368702 L130.590849,88.4949619 L133.952738,88.4949619 L133.952738,73.7156002 L130.590849,73.7156002 L130.590849,75.3426859 C130.590849,77.623619 128.89598,79.0146768 126.179613,79.0146768 L124.472808,79.0146768 L124.472808,69.5183217 L132.57317,69.5183217 C138.511182,69.5183217 139.746527,72.9713591 140.068791,78.1308278 L143,78.1308278 L143,66 L112,66 L112,69.5183217" id="Fill-73" fill="#000000"></path>
        <path d="M98.2062449,93.6283169 L90.8728431,93.6283169 L90.8728431,71.6234894 C90.8728431,69.9974081 91.5162284,69.4389762 93.3540468,69.4389762 L96.1112709,69.4389762 L96.1112709,66 L79,66 L79,69.4389762 L81.3898589,69.4389762 C83.2266845,69.4389762 83.8700698,69.9974081 83.8700698,71.6234894 L83.8700698,91.5020573 C83.8700698,93.0819375 83.2266845,93.6845618 81.3898589,93.6845618 L79,93.6845618 L79,97 L108,97 L108,83.3826988 L104.693714,83.3826988 C104.601376,88.7269723 104.638113,93.6283169 98.2062449,93.6283169" id="Fill-74" fill="#000000"></path>
        <path d="M55.8408542,94.3845175 C50.363419,94.3845175 47.2154224,89.4519664 47.2154224,81.592265 C47.2154224,73.9163175 50.5005028,69.9531924 56.1140356,69.9531924 C61.4997529,69.9531924 64.6487358,74.0086911 64.6487358,81.9140826 C64.6487358,89.6357203 61.4543871,94.3845175 55.8408542,94.3845175 Z M56.069656,66 C45.5723891,66 39.0377319,74.1517211 39,81.8207158 C38.9529175,91.749387 45.4806711,98 55.7501225,98 C66.6566685,98 73,91.8417606 73,81.3161374 C73,73.5150386 66.1546853,66 56.069656,66 L56.069656,66 Z" id="Fill-75" fill="#000000"></path>
        <path d="M183.796376,69.4831686 L187,69.4831686 L187,66 L171.513674,66 L171.513674,69.4831686 L173.540033,69.4831686 C174.299176,69.6016848 174.80626,70.3931314 174.046129,71.1654949 L169.740362,76.1833468 L166.321252,71.9378584 C165.562109,71.036935 165.689621,69.4932124 167.082372,69.4932124 L168.64514,69.4831686 L168.64514,66 L151,66 L151,69.4831686 C155.43229,69.6117285 156.537397,70.137016 158.137727,72.2281225 L165.309061,81.0726389 L155.558814,91.4950267 C153.820099,93.4937308 153.654036,93.6725093 151,93.6725093 L151,97 L166.447776,97 L166.447776,93.6725093 L162.751895,93.6725093 C161.653707,93.6725093 161.424382,92.8639883 161.424382,92.261364 C161.424382,91.6567309 162.202306,90.9586911 162.52257,90.5408715 L167.96804,84.2796047 L173.412521,90.8662887 C173.687315,91.237907 174.143987,91.6567309 174.143987,92.1207517 C174.143987,92.7253847 173.641845,93.6725093 172.589127,93.6725093 L169.526853,93.6725093 L169.526853,97 L187,97 L187,93.6725093 C184.240198,93.6725093 183.993081,93.539932 181.516969,90.4645391 L172.400329,79.5289162 L178.604942,72.7102219 C180.891269,70.2464928 181.784843,69.4831686 183.796376,69.4831686" id="Fill-76" fill="#000000"></path>
        <path d="M18.0924007,78.66755 L12.6378814,78.66755 L12.6378814,69.5030601 L17.4869027,69.5030601 C22.1495394,69.5030601 23.8270006,71.0526847 23.8270006,74.0883336 C23.8270006,77.2188782 22.0084917,78.66755 18.0924007,78.66755 Z M32.4006908,88.2368604 L32.4006908,89.8359518 C32.4006908,91.7520348 31.2854059,92.7322859 30.353483,92.7322859 C28.861399,92.7322859 28.7687104,90.9110985 28.6760219,89.8359518 L28.6760219,88.5427472 C28.6760219,84.2754748 26.7396373,82.5936021 24.2874208,81.3003975 C28.8563615,80.2272699 31.8888889,77.4924601 31.8888889,73.7087513 C31.8888889,68.8024481 28.5319516,66 22.5646229,66 L0,66 L0,69.5323364 L3.05569948,69.5323364 C4.92055268,69.5323364 5.57239493,69.9634046 5.57239493,71.5978295 L5.57239493,91.6500726 C5.57239493,93.2390687 4.92055268,93.8457947 3.05569948,93.8457947 L0,93.8457947 L0,97.1590637 L17.5755613,97.1590637 L17.5755613,93.8457947 L15.1515544,93.8457947 C13.2867012,93.8457947 12.6338515,93.2390687 12.6338515,91.6500726 L12.6338515,82.7238312 L15.7691422,82.7238312 C19.1260794,82.7238312 21.5853483,84.6055903 21.7727404,88.1550886 L22.0518135,92.2547795 C22.238198,95.99205 24.7548935,98 29.1848014,98 C33.8937824,98 35,95.7103918 35,90.8525459 L35,88.2368604 L32.4006908,88.2368604 L32.4006908,88.2368604 Z" id="Fill-77" fill="#000000"></path>
    </g>
</svg>