<?xml version="1.0" encoding="UTF-8"?>
<svg width="398px" height="55px" viewBox="0 0 398 55" version="1.1" xmlns="http://www.w3.org/2000/svg" xmlns:xlink="http://www.w3.org/1999/xlink">
    <!-- Generator: Sketch 58 (84663) - https://sketch.com -->
    <title>Zara-logo</title>
    <desc>Created with Sketch.</desc>
    <g id="Zara-logo" stroke="none" stroke-width="1" fill="none" fill-rule="evenodd">
        <path d="M64.4931444,54.994988 L0,54.994988 L0,52.9962132 L48.3070848,4.24675614 L8.30310845,4.24675614 L7.15067701,16.4027956 L4.19857183,16.4027956 L5.52206731,2.23194297 L65.8616568,2.23194297 L65.8616568,3.6583505 L16.8062918,52.9962132 L61.3469666,53.0072395 L62.5654227,37.6886451 L65.8616568,37.6886451 L64.4931444,54.994988 Z M363.313014,38.5486997 L336.586008,38.5486997 L327.983788,52.9962132 L343.543613,52.9962132 L343.543613,54.994988 L313.056199,54.994988 L313.056199,52.9962132 L324.660544,52.9962132 L355.348032,1.01102634 L357.269752,1.01102634 L386.694768,52.9962132 L398,52.9962132 L398,54.994988 L357.912993,54.994988 L357.912993,52.9962132 L371.511083,52.9962132 L363.313014,38.5486997 Z M337.76645,36.5509272 L362.177589,36.5509272 L350.313147,15.4204489 L350.075058,15.4204489 L337.76645,36.5509272 Z M140.47559,38.5376733 L113.753586,38.5376733 L105.140362,52.9851868 L120.711191,52.9851868 L120.711191,54.9889737 L90.217775,54.9889737 L90.217775,52.9851868 L101.828122,52.9851868 L132.504606,1 L134.431327,1 L163.856343,52.9851868 L175.161576,52.9851868 L175.161576,54.9889737 L135.07957,54.9889737 L135.07957,52.9851868 L148.673659,52.9851868 L140.47559,38.5376733 Z M114.517872,36.5388985 L138.930011,36.5388985 L127.070572,15.4144345 L126.837484,15.4144345 L114.517872,36.5388985 Z M216.429025,52.9962132 L216.429025,4.24675614 L203.196071,4.24675614 L203.196071,2.23194297 L249.293328,2.23194297 L265.866533,2.33719441 C274.740855,2.39332851 277.006704,9.56947152 277.006704,14.3990087 C277.006704,20.9376288 275.461125,26.2493178 265.916552,28.0636521 C265.745488,28.1027454 264.493019,28.1578772 262.720355,28.2250376 L276.701589,52.9962132 L288.006822,52.9962132 L288.006822,55 L262.62632,55 L247.332594,28.1919586 L231.351612,28.1799298 L231.351612,52.9962132 L244.585566,52.9962132 L244.585566,54.994988 L203.196071,54.994988 L203.196071,52.9962132 L216.429025,52.9962132 Z M231.351612,4.24675614 L231.351612,26.171131 L246.219178,26.1159993 C249.393366,26.104973 251.874295,25.77719 253.746996,25.4714596 C256.29495,25.0504539 258.333713,24.0069611 259.851281,22.2798352 C261.39686,20.5657404 262.144139,17.8292031 262.144139,14.082252 C262.144139,11.0189341 261.374851,8.77657738 259.834275,7.35016985 C258.294698,5.93980063 256.405991,5.06871972 254.223174,4.73592471 C252.013347,4.40814167 249.149274,4.24675614 245.592943,4.24675614 L231.351612,4.24675614 L231.351612,4.24675614 Z" id="Fill-16" fill="#000000"></path>
    </g>
</svg>